<svg width="1400" height="520" viewBox="0 0 1400 520" fill="none" xmlns="http://www.w3.org/2000/svg">
<defs>
  <linearGradient id="bg" x1="0" y1="0" x2="1" y2="1"><stop offset="0" stop-color="#090E18"/><stop offset="1" stop-color="#0D213A"/></linearGradient>
  <filter id="glow"><feGaussianBlur stdDeviation="35" result="coloredBlur"/><feMerge><feMergeNode in="coloredBlur"/><feMergeNode in="SourceGraphic"/></feMerge></filter>
  <style>
    .title { font: 800 68px Arial, sans-serif; fill: #fff; }
    .h1 { font: 800 44px Arial, sans-serif; fill: #fff; }
    .h2 { font: 700 26px Arial, sans-serif; fill: #fff; }
    .body { font: 400 21px Arial, sans-serif; fill: #C7D3E4; }
    .small { font: 400 16px Arial, sans-serif; fill: #AAB8CC; }
    .mono { font: 600 16px 'Courier New', monospace; fill: #C4E2FF; }
    .metric { font: 800 42px Arial, sans-serif; fill: #fff; }
    .label { font: 700 18px Arial, sans-serif; fill: #7EE1FF; }
  </style>
</defs>
<rect width="1400" height="520" fill="url(#bg)"/>
<circle cx="1036" cy="90" r="210" fill="#FF4757" opacity="0.18" filter="url(#glow)"/>
<circle cx="1204" cy="405" r="280" fill="#00C2FF" opacity="0.10" filter="url(#glow)"/>
<rect x="64" y="56" width="224" height="46" rx="23" fill="#162237" stroke="#667EEA" stroke-width="2"/>
<text x="88" y="86" class="small" style="font-weight:700;fill:#E1E8FF">Databricks-backed</text>
<rect x="310" y="56" width="240" height="46" rx="23" fill="#162237" stroke="#FF4757" stroke-width="2"/>
<text x="334" y="86" class="small" style="font-weight:700;fill:#FFE7EA">Medical Desert AI</text>
<rect x="70" y="160" width="112" height="112" rx="24" fill="#FF4757" stroke="#fff" stroke-width="3"/>
<rect x="113" y="183" width="26" height="66" fill="#fff"/>
<rect x="101" y="196" width="50" height="25" fill="#fff"/>
<rect x="91" y="248" width="70" height="24" fill="#fff"/>
<text x="220" y="215" class="title">MediRoute AI</text>
<text x="224" y="270" style="font:800 34px Arial,sans-serif;fill:#7EE1FF">Extract → Verify → Score → Recommend → Cite</text>
<text x="224" y="323" class="body">A Databricks Lakehouse intelligence layer that turns messy Ghana facility records into</text>
<text x="224" y="354" class="body">verified capability maps, medical desert scores, and NGO action plans.</text>
<rect x="224" y="400" width="240" height="78" rx="18" fill="#0F172A" stroke="#465A82"/>
<text x="246" y="436" class="metric" style="font-size:30px">987</text>
<text x="246" y="463" class="small">facilities</text>
<rect x="484" y="400" width="240" height="78" rx="18" fill="#0F172A" stroke="#465A82"/>
<text x="506" y="436" class="metric" style="font-size:30px">8,302</text>
<text x="506" y="463" class="small">evidence facts</text>
<rect x="744" y="400" width="240" height="78" rx="18" fill="#0F172A" stroke="#465A82"/>
<text x="766" y="436" class="metric" style="font-size:30px">1,117</text>
<text x="766" y="463" class="small">claim checks</text>
<rect x="1004" y="400" width="240" height="78" rx="18" fill="#0F172A" stroke="#465A82"/>
<text x="1026" y="436" class="metric" style="font-size:30px">987</text>
<text x="1026" y="463" class="small">RAG docs</text>
</svg>
